# xmcd
#
# Track frame offsets:
#	150
#	24757
#	50455
#	71750
#	95347
#	119157
#	136202
#	162352
#	181705
#
# Disc length: 2816 seconds
#
# Revision: 25
# Processed by: cddbd v1.5.2PL0 Copyright (c) Steve Scherf et al.
# Submitted via: audiograbber 1.83.01
#
DISCID=730afe09
DTITLE=Deep Purple - Slaves And Masters [CD-R]
DYEAR=1990
DGENRE=HardRock
TTITLE0=King Of Dreams
TTITLE1=The Cut Runs Deep
TTITLE2=Fire In The Basement
TTITLE3=Truth Hurts
TTITLE4=Breakfast In Bed
TTITLE5=Love Conquers All
TTITLE6=Fortuneteller
TTITLE7=Too Much Is Not Enough
TTITLE8=Wicked Ways
EXTD=
EXTT0=
EXTT1=
EXTT2=
EXTT3=
EXTT4=
EXTT5=
EXTT6=
EXTT7=
EXTT8=
PLAYORDER=
